<svg width="1000" height="1000" viewBox="0 0 1000 1000" fill="none" xmlns="http://www.w3.org/2000/svg">
<circle cx="500" cy="500" r="500" fill="#333333"/>
<path d="M615.07 699.123L615.057 699.135L615.045 699.148C593.916 720.265 564.002 732.968 524.91 736.944C523.521 736.977 521.9 737.364 520.628 738.635C519.293 739.969 518.932 741.686 518.932 743.119V743.143L518.933 743.167L519.602 791.307C519.602 791.315 519.602 791.322 519.602 791.33C519.598 793.004 519.18 793.625 518.954 793.851C518.726 794.079 518.099 794.5 516.406 794.5H486.942C485.249 794.5 484.623 794.079 484.394 793.851C484.168 793.625 483.75 793.004 483.746 791.329C483.746 791.322 483.746 791.314 483.746 791.307L484.415 743.167L484.416 743.143V743.119C484.416 741.686 484.055 739.969 482.72 738.635C481.453 737.369 479.841 736.98 478.455 736.945C438.459 732.526 407.622 719.595 385.588 698.442C363.557 676.848 352.5 649.446 352.5 615.955V595.207C352.5 593.516 352.921 592.891 353.148 592.663C353.376 592.435 354.003 592.015 355.696 592.015H385.829C387.522 592.015 388.149 592.435 388.377 592.663C388.605 592.891 389.026 593.516 389.026 595.207V613.278C389.026 640.213 399.547 662.192 420.473 678.924L420.506 678.951L420.54 678.977C441.88 695.205 470.841 703.115 507.031 703.115C539.635 703.115 565.118 695.879 582.943 680.876L582.964 680.859L582.984 680.842C600.774 665.4 609.635 644.996 609.635 619.971C609.635 603.741 605.453 589.628 596.95 577.806C588.992 566.126 576.737 555.339 560.416 545.371C544.141 535.43 520.979 523.977 491.011 511.012L490.989 511.002L490.966 510.993C458.903 497.64 434.289 486.11 417.059 476.399C400.525 466.389 386.846 453.796 375.987 438.614C365.762 423.262 360.535 403.918 360.535 380.368C360.535 346.777 370.762 320.542 390.928 301.244L390.942 301.231L390.955 301.217C411.2 281.413 439.345 269.603 475.75 266.072C477.141 266.04 478.766 265.655 480.042 264.38C481.377 263.046 481.737 261.329 481.737 259.897V259.874L481.737 259.852L481.068 207.672C481.071 205.997 481.489 205.375 481.716 205.149C481.944 204.921 482.571 204.5 484.264 204.5H513.058C514.751 204.5 515.378 204.921 515.606 205.149C515.832 205.375 516.25 205.997 516.254 207.672L515.585 260.522L515.584 260.544V260.566C515.584 261.998 515.945 263.716 517.28 265.05C518.545 266.314 520.154 266.703 521.538 266.74C560.157 271.155 590.096 284.287 611.697 305.876C633.29 327.458 644.152 355.089 644.152 389.068V403.793C644.152 405.484 643.731 406.109 643.504 406.337C643.276 406.565 642.649 406.985 640.956 406.985H609.483C607.79 406.985 607.164 406.565 606.935 406.337C606.708 406.109 606.287 405.484 606.287 403.793V391.746C606.287 364.873 596.264 342.701 576.276 325.51C556.256 308.293 528.786 299.9 494.308 299.9C463.949 299.9 440.061 306.461 423.142 320.083C406.086 333.816 397.731 353.653 397.731 379.029C397.731 395.652 401.664 409.788 409.759 421.21L409.807 421.278L409.858 421.344C418.241 432.05 429.792 441.476 444.38 449.678L444.436 449.709L444.493 449.738C459.357 457.391 482.002 467.472 512.364 479.968C543.068 493.312 567.667 505.725 586.214 517.201L586.229 517.21L586.245 517.22C605.042 528.58 619.822 542.507 630.666 558.983L630.696 559.027L630.727 559.071C641.844 574.884 647.5 594.447 647.5 617.963C647.5 651.021 636.658 677.978 615.07 699.123Z" fill="#E8EDDF" stroke="#333333" stroke-width="7"/>
</svg>
