<svg width="1000" height="1000" viewBox="0 0 1000 1000" fill="none" xmlns="http://www.w3.org/2000/svg">
<circle cx="500" cy="500" r="500" fill="#333333"/>
<rect x="224" y="224" width="552" height="552" fill="#333333"/>
<path d="M460.923 628.159L460.856 628.235L460.796 628.317L460.637 628.531C457.487 632.783 454.526 636.781 452.403 642.004C450.229 647.352 448.984 653.835 448.984 663.121V726.608C448.984 734.864 454.784 742.169 463.114 743.429C475.144 745.248 487.574 746.156 500 746.156C512.426 746.156 524.856 745.248 536.886 743.429C545.216 742.169 551.016 734.864 551.016 726.608V663.121C551.016 653.835 549.771 647.352 547.598 642.005C545.476 636.784 542.518 632.787 539.372 628.537L539.209 628.317L539.148 628.235L539.08 628.157C537.32 626.148 536.071 624.431 532.133 618.508C527.094 610.929 531.635 600.646 540.647 599.241L542.409 598.966C542.414 598.965 542.418 598.964 542.422 598.964C574.823 594.217 597.575 583.386 613.534 570.328C629.492 557.271 638.534 542.09 643.675 528.825L643.68 528.811L643.686 528.797C656.922 493.392 650.013 449.089 626.111 420.869C622.928 417.11 620.468 410.899 622.681 404.545L622.69 404.521L622.697 404.498C626.179 393.821 626.902 379.066 625.961 367.949C625.222 359.223 616.867 353.874 608.633 356.846C597.571 360.838 586.675 367.617 576.641 373.861C574.563 375.154 572.522 376.424 570.524 377.642C567.242 379.554 564.613 380.255 562.507 380.458C560.464 380.655 558.81 380.402 557.211 380.157C557.135 380.145 557.058 380.133 556.982 380.122C556.816 380.096 556.653 380.072 556.492 380.047C555.138 379.843 553.951 379.663 552.804 379.349C535.193 374.527 517.316 372.113 500.324 372.113C477.021 372.113 460.265 376.111 448.547 378.907C446.74 379.338 445.053 379.74 443.48 380.095C442.255 380.371 440.936 380.452 439.504 380.44C437.013 380.418 434.187 380.385 429.475 377.639C427.426 376.402 425.302 375.086 423.115 373.732C413.402 367.715 402.455 360.934 391.403 356.906C383.16 353.902 374.772 359.24 374.036 367.992C373.1 379.104 373.827 393.834 377.307 404.498L377.315 404.521L377.322 404.544C379.532 410.898 377.073 417.109 373.893 420.868C349.987 449.085 343.078 493.392 356.314 528.797L356.32 528.811L356.325 528.825C361.466 542.09 370.508 557.271 386.466 570.328C402.425 583.386 425.177 594.217 457.578 598.964C457.582 598.964 457.586 598.965 457.591 598.966L459.353 599.241C468.364 600.646 472.908 610.937 467.869 618.518C464.098 624.192 462.709 626.116 460.923 628.159ZM669.081 538.364L669.079 538.37C655.86 573.9 628.261 600.167 589.385 615.02C578.808 619.061 573.877 631.439 576.236 641.969C577.564 647.904 578.359 654.859 578.359 663.121V708.273C578.359 720.246 590.291 728.92 601.522 723.837C686.257 685.492 746.156 600.072 746.156 501.078C746.156 365.809 635.297 253.844 500 253.844C364.703 253.844 253.844 365.809 253.844 501.078C253.844 600.072 313.743 685.492 398.478 723.837C409.709 728.92 421.641 720.246 421.641 708.273V704.356C421.641 693.074 411.279 685.459 400.817 685.116C395.571 684.944 390.284 684.109 384.753 682.479C369.131 677.864 356.357 667.454 346.794 651.35C343.202 645.29 337.641 638.402 331.135 633.869C327.774 631.528 324.308 628.855 321.608 625.83C318.905 622.802 317.133 619.603 316.833 616.205L316.627 613.867C316.323 610.42 317.48 607.195 319.448 605.06C321.375 602.97 324.06 601.916 327.138 602.598C344.868 606.524 360.306 620.579 370.309 637.384C376.258 647.39 383.294 653.537 392.498 656.258L392.502 656.259C398.402 657.993 404.524 657.967 411.015 656.682C418.069 655.286 422.332 649.03 423.664 642.722C423.716 642.476 423.768 642.232 423.822 641.99C426.154 631.452 421.184 619.058 410.61 615.018C371.736 600.165 344.14 573.899 330.921 538.37L330.917 538.359C315.547 497.675 321.351 448.932 345.042 413.694C347.86 409.501 348.979 404.385 348.184 399.401C346.497 388.816 345.911 376.266 347.031 364.606C348.157 352.876 350.978 342.393 355.829 335.65C360.577 329.128 366.953 325.707 374.121 325.688C397.036 326.88 414.94 336.813 434.997 348.859C439.105 351.326 443.999 351.97 448.589 350.867C464.584 347.023 482.137 344.769 499.676 344.769C517.111 344.769 534.548 346.811 551.759 350.899C556.343 351.988 561.224 351.322 565.309 348.841C584.405 337.242 602.282 326.982 624.343 325.702C624.506 325.692 624.675 325.688 624.848 325.688C633.061 325.688 639.442 329.154 644.171 335.651C649.024 342.394 651.846 352.876 652.973 364.606C654.093 376.265 653.506 388.815 651.817 399.399C651.022 404.384 652.14 409.502 654.961 413.695C678.648 448.902 684.455 497.373 669.081 538.364ZM226.5 501.078C226.5 350.755 349.702 226.5 500 226.5C650.298 226.5 773.5 350.755 773.5 501.078C773.5 650.691 651.257 773.5 500 773.5C348.556 773.5 226.5 650.508 226.5 501.078Z" fill="#E8EDDF" stroke="#333333" stroke-width="5"/>
</svg>
