<svg width="1000" height="1000" viewBox="0 0 1000 1000" fill="none" xmlns="http://www.w3.org/2000/svg">
<circle cx="500" cy="500" r="500" fill="#333333"/>
<path d="M516.066 475.742H518.48L519.605 473.607C528.198 457.299 549.638 441 582.312 441C616.818 441 636.244 451.877 647.365 469.239C658.756 487.023 662 512.403 662 542.664V663H601V556.656C601 543.73 600.757 527.997 595.628 515.484C593.019 509.119 589.079 503.4 583.13 499.299C577.173 495.192 569.528 492.934 559.906 492.934C540.434 492.934 528.075 500.669 520.856 512.795C513.864 524.542 512 539.909 512 554.789V663H452V445H512V471.742V475.742H516H516.066ZM400.008 663H338.008V445H400.008V663ZM370.016 332C390.422 332 406.992 348.575 406.992 368.996C406.992 389.426 390.421 406 370.016 406C349.524 406 333 389.426 333 368.996C333 348.574 349.524 332 370.016 332ZM752 304V696C752 726.877 726.877 752 696 752H304C273.123 752 248 726.877 248 696V304C248 273.123 273.123 248 304 248H696C726.877 248 752 273.123 752 304ZM720 304C720 290.764 709.236 280 696 280H304C290.764 280 280 290.764 280 304V696C280 709.236 290.764 720 304 720H696C709.236 720 720 709.236 720 696V304Z" fill="#E8EDDF" stroke="#333333" stroke-width="8"/>
</svg>
