<svg width="1000" height="1000" viewBox="0 0 1000 1000" fill="none" xmlns="http://www.w3.org/2000/svg">
<circle cx="500" cy="500" r="500" fill="#333333"/>
<g clip-path="url(#clip0)">
<path d="M752.342 338.243C749.739 335.64 745.4 334.772 741.928 335.64L724.572 341.715C734.986 329.566 741.928 316.549 746.267 304.4C748.003 300.061 747.135 296.59 744.531 293.986C741.928 291.383 737.589 290.515 734.117 292.25C709.819 302.664 688.992 311.342 671.636 316.548C671.636 317.416 670.768 316.548 669.9 316.548C656.015 308.738 622.171 291.382 597.873 291.382C536.259 292.25 486.795 344.318 486.795 407.667V411.138C396.544 393.782 347.08 367.748 293.276 311.341L284.6 302.663L279.393 313.077C249.888 369.484 270.715 420.684 304.559 455.396C288.939 452.793 278.525 447.586 268.979 439.776C265.508 437.173 261.169 436.305 256.83 438.908C253.359 440.644 251.623 445.85 252.491 450.189C264.64 490.975 295.013 523.952 327.989 543.911C312.369 543.911 299.352 542.175 286.335 533.497C282.864 531.761 277.657 531.761 274.186 534.365C270.715 536.969 268.979 541.307 270.715 545.646C286.335 589.904 316.708 613.334 365.305 619.409C340.139 634.162 307.163 646.311 255.963 647.179C250.756 647.179 246.417 650.65 244.682 654.989C242.946 660.196 244.682 664.535 248.153 668.006C279.394 693.172 348.817 707.925 434.729 707.925C587.461 707.925 712.424 571.681 712.424 404.196V401.593C731.516 392.047 747.136 373.823 754.946 348.657C755.813 345.185 754.945 340.846 752.342 338.243ZM700.274 387.707L695.067 389.443V404.196C695.067 562.135 577.914 690.569 434.728 690.569C355.758 690.569 302.823 677.552 274.186 663.667C334.064 659.328 368.776 640.236 395.678 619.409L417.373 603.789H391.339C341.875 603.789 311.502 589.904 294.146 556.928C309.766 562.135 326.254 562.135 344.478 561.267C351.42 560.399 358.363 560.399 365.305 560.399L367.908 543.043C334.932 533.497 295.881 503.992 276.789 464.074C294.145 471.884 313.236 473.62 330.592 473.62H357.494L335.8 457.999C317.576 444.982 263.773 398.989 289.807 333.036C345.346 387.707 398.282 412.873 493.739 430.229L504.153 431.965V407.667C504.153 353.864 545.807 309.606 597.875 308.738C617.834 307.87 650.811 326.094 660.356 331.301C665.563 333.904 670.77 334.772 675.976 333.037C688.993 328.698 704.613 322.623 721.969 315.681C714.159 328.698 703.745 340.847 689.861 352.129C686.39 354.732 685.522 359.939 687.258 364.278C688.994 368.617 694.2 370.353 698.539 368.617L732.383 357.336C726.308 368.616 716.762 381.633 700.274 387.707Z" fill="#E8EDDF"/>
</g>
<defs>
<clipPath id="clip0">
<rect x="244" y="244" width="511.271" height="511.271" fill="white"/>
</clipPath>
</defs>
</svg>
